# xmcd
#
# Track frame offsets: 
#        150
#        21742
#        39435
#        64762
#        82967
#        102507
#        118705
#        135192
#        155580
#        173570
#        193992
#        213770
#        235275
#
# Disc length: 3415 seconds
#
# Revision: 1
# Processed by: cddbd v1.5.2PL0 Copyright (c) Steve Scherf et al.
# Submitted via: ExactAudioCopy v0.95a5
#
DISCID=ae0d550d
DTITLE=Various Artist - Gift For Lovers II
DYEAR=1991
DGENRE=R&B
TTITLE0=Atlantic Star - Always
TTITLE1=Thelma Houston - You Can Float In My Boat
TTITLE2=Al Jarreau - Your Song
TTITLE3=Randy Crawford - Almaz
TTITLE4=Brenda Russell - I'll See You Again
TTITLE5=Patti Austin (Duet With James Ingram) - Baby Come To Me
TTITLE6=Zapp - Ooh Baby Baby
TTITLE7=Karyn White - Superwoman
TTITLE8=Club Nouveau - Lean To Me
TTITLE9=The Family - Nothing Compares 2 U
TTITLE10=ZAN - Why Don't You Call
TTITLE11=Chaka Khan - Through The Fire
TTITLE12=The Isley Brothers feat. Ronald Islay - Real Woman
EXTD=
EXTT0=
EXTT1=
EXTT2=
EXTT3=
EXTT4=
EXTT5=
EXTT6=
EXTT7=
EXTT8=
EXTT9=
EXTT10=
EXTT11=
EXTT12=
PLAYORDER=
